<svg width="300" height="176" viewBox="0 0 300 176" fill="none" xmlns="http://www.w3.org/2000/svg">
<g clip-path="url(#clip0_104_29)">
<path d="M229.687 174.01C225.846 170.825 223.513 165.794 224.125 160.897C224.737 155.999 228.526 151.497 233.442 150.457C238.357 149.417 243.96 152.296 245.453 157.007C246.275 147.923 247.222 138.459 252.144 130.723C256.6 123.718 264.319 118.706 272.685 117.809C281.05 116.913 289.858 120.299 295.075 126.778C300.292 133.258 301.57 142.677 297.916 150.116C295.224 155.595 290.265 159.673 285.069 162.991C268.278 173.622 248.141 177.945 228.361 175.165L229.687 174.01Z" fill="#CCCCCC"/>
<path d="M286.803 120.487C279.9 126.004 273.568 132.174 267.897 138.909C259.023 149.412 251.841 161.188 246.603 173.826C246.22 174.749 247.746 175.15 248.125 174.238C256.695 153.698 270.377 135.594 287.918 121.582C288.706 120.952 287.584 119.863 286.803 120.487Z" fill="white"/>
<path d="M96.5749 173.144C101.85 168.77 105.055 161.86 104.214 155.134C103.374 148.407 98.1691 142.223 91.4178 140.794C84.6664 139.366 76.9704 143.32 74.9198 149.792C73.7912 137.315 72.4908 124.315 65.7307 113.69C59.6096 104.069 49.0077 97.1846 37.5177 95.953C26.0276 94.7214 13.9301 99.3729 6.76416 108.272C-0.401757 117.171 -2.1563 130.109 2.86252 140.326C6.55971 147.852 13.3712 153.453 20.508 158.01C43.2768 172.549 71.5215 178.612 98.3968 174.731" fill="#CCCCCC"/>
<path d="M18.1264 99.6308C27.6071 107.208 36.3047 115.683 44.0933 124.933C51.8831 134.173 58.7412 144.133 64.5712 154.673C67.8299 160.585 70.7573 166.667 73.3403 172.893C73.867 174.159 71.7714 174.71 71.2506 173.458C66.6755 162.483 61.0152 151.974 54.3509 142.082C47.719 132.226 40.1284 123.024 31.6858 114.607C26.9107 109.848 21.8724 105.35 16.594 101.134C15.5121 100.27 17.0534 98.7734 18.1264 99.6308Z" fill="white"/>
<path d="M215.345 175.615H89.4828V48.8947C89.4828 21.934 111.835 0 139.31 0H165.517C192.992 0 215.345 21.934 215.345 48.8947V175.615Z" fill="#CCCCCC"/>
<path d="M189.138 175.615H89.4827V48.8948C89.4552 38.564 92.7889 28.4944 98.9985 20.152C99.2274 19.8459 99.4557 19.5437 99.6912 19.2448C102.695 15.3793 106.269 11.9749 110.296 9.14421C110.524 8.98179 110.752 8.8222 110.984 8.66259C114.353 6.37433 117.999 4.50372 121.836 3.09334C122.064 3.00858 122.296 2.92366 122.528 2.8422C125.999 1.62679 129.597 0.794248 133.255 0.359932C133.482 0.32953 133.715 0.305739 133.948 0.281948C137.513 -0.0921111 141.108 -0.0921111 144.674 0.281948C144.906 0.305739 145.139 0.329527 145.368 0.360258C149.026 0.794602 152.623 1.62705 156.092 2.84221C156.325 2.92367 156.557 3.00859 156.785 3.09351C160.575 4.4861 164.178 6.3288 167.511 8.58048C167.743 8.73662 167.975 8.89622 168.203 9.05582C170.461 10.6369 172.581 12.3984 174.542 14.3222C176.116 15.8654 177.581 17.5102 178.93 19.2458C179.165 19.5437 179.393 19.8459 179.622 20.1515C185.832 28.494 189.165 38.5638 189.138 48.8948V175.615Z" fill="#F9A826" fill-opacity="0.99"/>
<path d="M181.034 118.938C184.082 118.938 186.552 116.514 186.552 113.524C186.552 110.534 184.082 108.11 181.034 108.11C177.987 108.11 175.517 110.534 175.517 113.524C175.517 116.514 177.987 118.938 181.034 118.938Z" fill="#9933FF"/>
<path d="M205.034 171.819H200.807L198.795 155.818L205.035 155.819L205.034 171.819Z" fill="#FFB8B8"/>
<path d="M197.787 170.634H205.94V175.671H192.653C192.653 175.01 192.786 174.355 193.044 173.743C193.302 173.132 193.68 172.577 194.157 172.109C194.634 171.641 195.2 171.27 195.822 171.017C196.445 170.764 197.113 170.634 197.787 170.634Z" fill="#2F2E41"/>
<path d="M226.069 171.819H221.841L219.83 155.818L226.069 155.819L226.069 171.819Z" fill="#FFB8B8"/>
<path d="M218.821 170.634H226.974V175.671H213.688C213.688 175.01 213.821 174.355 214.079 173.743C214.337 173.132 214.715 172.577 215.191 172.109C215.668 171.641 216.234 171.27 216.857 171.017C217.48 170.764 218.147 170.634 218.821 170.634Z" fill="#2F2E41"/>
<path d="M183.827 114.596C183.523 114.156 183.321 113.657 183.235 113.132C183.149 112.607 183.181 112.07 183.329 111.559C183.477 111.048 183.738 110.575 184.093 110.174C184.447 109.772 184.888 109.452 185.382 109.235L199.753 70.3677L206.825 74.1545L190.416 111.298C190.732 112.137 190.723 113.061 190.391 113.894C190.059 114.728 189.427 115.412 188.614 115.819C187.802 116.225 186.866 116.326 185.984 116.1C185.101 115.875 184.334 115.34 183.827 114.596Z" fill="#FFB8B8"/>
<path d="M223.909 121.9C223.439 121.635 223.034 121.273 222.723 120.838C222.411 120.404 222.2 119.908 222.105 119.384C222.01 118.861 222.033 118.324 222.172 117.81C222.311 117.297 222.564 116.82 222.912 116.412L218.46 75.297L226.507 75.6577L228.357 116.1C229.016 116.719 229.421 117.553 229.495 118.445C229.569 119.336 229.307 120.224 228.758 120.939C228.21 121.653 227.414 122.146 226.52 122.323C225.626 122.5 224.697 122.35 223.909 121.9Z" fill="#FFB8B8"/>
<path d="M211.071 63.1684C215.748 63.1684 219.54 59.4475 219.54 54.8576C219.54 50.2677 215.748 46.5469 211.071 46.5469C206.394 46.5469 202.602 50.2677 202.602 54.8576C202.602 59.4475 206.394 63.1684 211.071 63.1684Z" fill="#FFB8B8"/>
<path d="M223.855 112.549H198.322L198.352 112.354C198.398 112.062 202.903 83.1052 199.581 73.6318C199.247 72.7008 199.277 71.6818 199.663 70.7707C200.049 69.8597 200.765 69.1211 201.673 68.6972C206.422 66.5027 215.538 63.8005 223.232 70.3583C224.364 71.3392 225.248 72.5651 225.815 73.9391C226.381 75.313 226.613 76.7974 226.494 78.2748L223.855 112.549Z" fill="#3F3D56"/>
<path d="M203.226 87.3846L191.73 85.0961L197.119 72.5663C197.441 71.3527 198.241 70.3142 199.343 69.6785C200.444 69.0428 201.758 68.8618 202.996 69.1753C204.233 69.4888 205.293 70.2712 205.944 71.3507C206.594 72.4303 206.782 73.719 206.465 74.9341L203.226 87.3846Z" fill="#3F3D56"/>
<path d="M217.948 91.6337L217.257 76.0885C216.733 73.1662 218.438 70.4037 221.06 69.9522C223.682 69.5023 226.243 71.529 226.77 74.4728L229.367 88.9983L217.948 91.6337Z" fill="#3F3D56"/>
<path d="M223.006 110.688C227.114 126.042 227.562 145.563 226.454 166.857L220.937 166.18L210.937 125.576L205.419 166.857L199.212 166.519C197.358 144.176 195.553 124.996 198.523 112.379L223.006 110.688Z" fill="#2F2E41"/>
<path d="M216.651 61.2804C215.071 62.9319 212.137 62.0453 211.931 59.7891C211.915 59.614 211.916 59.4377 211.935 59.2627C212.041 58.2633 212.629 57.356 212.489 56.3008C212.457 56.0381 212.357 55.7879 212.199 55.5736C210.94 53.9192 207.984 56.3136 206.796 54.8159C206.067 53.8976 206.924 52.4517 206.365 51.4253C205.627 50.0706 203.441 50.7388 202.07 49.9969C200.545 49.1715 200.636 46.8754 201.64 45.4788C202.865 43.7756 205.011 42.8667 207.131 42.7357C209.251 42.6048 211.356 43.1671 213.335 43.9239C215.584 44.7838 217.814 45.9722 219.198 47.9125C220.881 50.272 221.043 53.4441 220.201 56.2032C219.689 57.8815 217.942 59.9318 216.651 61.2804Z" fill="#2F2E41"/>
<path d="M289.649 175.832H35.0647C34.956 175.832 34.8519 175.79 34.7751 175.714C34.6984 175.639 34.6553 175.536 34.6553 175.43C34.6553 175.323 34.6984 175.221 34.7751 175.145C34.8519 175.07 34.956 175.027 35.0647 175.027H289.649C289.757 175.027 289.862 175.07 289.938 175.145C290.015 175.221 290.058 175.323 290.058 175.43C290.058 175.536 290.015 175.639 289.938 175.714C289.862 175.79 289.757 175.832 289.649 175.832Z" fill="#3F3D56"/>
<path d="M161.724 138.901H116.897C116.306 138.905 115.739 138.678 115.318 138.271C114.898 137.864 114.66 137.31 114.655 136.731V38.5457C114.66 37.9664 114.898 37.4125 115.318 37.0055C115.739 36.5986 116.306 36.3718 116.897 36.3749H161.724C162.314 36.3718 162.882 36.5986 163.302 37.0055C163.722 37.4125 163.961 37.9664 163.966 38.5457V136.731C163.961 137.31 163.722 137.864 163.302 138.271C162.882 138.678 162.314 138.905 161.724 138.901Z" fill="white"/>
<path d="M163.965 68.1445H114.655V68.8212H163.965V68.1445Z" fill="#CCCCCC"/>
<path d="M164.138 106.756H114.828V107.433H164.138V106.756Z" fill="#CCCCCC"/>
<path d="M130.862 36.3749H130.172V139.24H130.862V36.3749Z" fill="#CCCCCC"/>
<path d="M148.103 36.3749H147.414V139.24H148.103V36.3749Z" fill="#CCCCCC"/>
</g>
<defs>
<clipPath id="clip0_104_29">
<rect width="300" height="176" fill="white"/>
</clipPath>
</defs>
</svg>
